<svg width="51" height="51" viewBox="0 0 51 51" fill="none" xmlns="http://www.w3.org/2000/svg">
<path fill-rule="evenodd" clip-rule="evenodd" d="M25.5 0C11.4167 0 0 11.4167 0 25.5C0 39.5833 11.4167 51 25.5 51C39.5833 51 51 39.5833 51 25.5C51 11.4167 39.5833 0 25.5 0ZM29.711 15.3C32.378 15.436 34.9046 16.252 37.0101 17.884C39.3963 22.236 40.6596 27.132 40.8 32.1639C38.6945 34.34 35.7468 35.7 32.6587 35.7C32.6587 35.7 31.6761 34.612 30.9743 33.6599C32.7991 33.252 34.4835 32.2999 35.6064 30.804L35.6045 30.8051C34.6226 31.3487 33.6407 31.8923 32.6587 32.2999C31.3954 32.844 30.1321 33.116 28.8688 33.388L28.8665 33.3883C27.7443 33.5241 26.6222 33.6599 25.5 33.6599C24.3778 33.6599 23.2557 33.5241 22.1335 33.3883L22.1312 33.388C20.8679 33.116 19.6046 32.844 18.3413 32.2999C17.3593 31.8923 16.3774 31.3487 15.3955 30.8051L15.3936 30.804C16.5165 32.2999 18.2009 33.252 20.0257 33.6599C19.3239 34.612 18.3413 35.7 18.3413 35.7C15.2532 35.7 12.3055 34.34 10.2 32.1639C10.3404 27.132 11.6037 22.236 13.9899 17.884C16.0954 16.252 18.622 15.436 21.289 15.3L21.7101 15.708C19.3239 16.252 17.2183 17.34 15.2532 18.836C17.6394 17.612 20.3064 16.796 23.1138 16.524C23.9559 16.388 24.6578 16.388 25.5 16.388C26.3422 16.388 27.0441 16.388 27.8862 16.524C30.6936 16.796 33.3606 17.612 35.7468 18.836C33.7817 17.34 31.6761 16.252 29.2899 15.708L29.711 15.3ZM18.2009 26.996C18.2009 28.4919 19.4642 29.7159 20.8679 29.7159C22.2716 29.7159 23.5349 28.4919 23.5349 26.996C23.5349 25.5 22.2716 24.276 20.8679 24.276C19.4642 24.276 18.2009 25.5 18.2009 26.996ZM27.4651 26.996C27.4651 28.4919 28.7284 29.7159 30.1321 29.7159C31.5358 29.7159 32.7991 28.4919 32.7991 26.996C32.7991 25.5 31.5358 24.276 30.1321 24.276C28.7284 24.276 27.4651 25.5 27.4651 26.996Z" fill="white"/>
</svg>
