<svg width="51" height="51" viewBox="0 0 51 51" fill="none" xmlns="http://www.w3.org/2000/svg">
<path fill-rule="evenodd" clip-rule="evenodd" d="M25.5 0C39.5833 0 51 11.4167 51 25.5C51 39.5833 39.5833 51 25.5 51C11.4167 51 0 39.5833 0 25.5C0 11.4167 11.4167 0 25.5 0ZM12.75 25.7673C12.75 18.749 18.4427 13.0563 25.461 13.0563C32.4794 13.0563 38.172 18.749 38.25 25.7673C38.25 31.382 34.6628 36.1389 29.594 37.8545C28.9702 37.9324 28.7362 37.5425 28.7362 37.2306V33.7214C28.7362 32.5517 28.3463 31.7719 27.8784 31.382C30.6858 31.0701 33.6491 30.0563 33.6491 25.1435C33.6491 23.7398 33.1032 22.5701 32.3234 21.7123C32.3295 21.6878 32.338 21.6571 32.3482 21.6205C32.4676 21.19 32.8142 19.9401 32.1674 18.3591C32.1674 18.3591 31.0757 18.0471 28.6583 19.6847C27.6445 19.4508 26.5528 19.2948 25.461 19.2948C24.3693 19.2948 23.2775 19.3728 22.2638 19.6847C19.8463 18.0471 18.7546 18.3591 18.7546 18.3591C18.0655 20.0436 18.5041 21.3522 18.594 21.6205C18.5957 21.6255 18.5972 21.63 18.5986 21.6343C17.7408 22.5701 17.2729 23.6618 17.2729 25.0655C17.2729 29.9783 20.2362 31.0701 23.0436 31.382C22.7317 31.6939 22.3417 32.2398 22.2638 33.0976C21.5619 33.4095 19.7683 33.9554 18.5986 32.0058C18.5986 32.0058 17.8968 30.7581 16.6491 30.6802C16.6491 30.6802 15.4014 30.6802 16.5711 31.46C16.5711 31.46 17.4289 31.8499 17.9748 33.3315C17.9748 33.3315 18.7546 35.8269 22.2638 35.0471V37.2306C22.2638 37.5425 22.0298 37.9324 21.406 37.8545C16.4151 36.1389 12.75 31.382 12.75 25.7673Z" fill="white"/>
</svg>
