<svg width="51" height="51" viewBox="0 0 51 51" fill="none" xmlns="http://www.w3.org/2000/svg">
<path fill-rule="evenodd" clip-rule="evenodd" d="M25.5 0C11.4167 0 0 11.4167 0 25.5C0 39.5833 11.4167 51 25.5 51C39.5833 51 51 39.5833 51 25.5C51 11.4167 39.5833 0 25.5 0ZM31.8681 36.0726L35.7 16.0678C35.7 14.7364 33.9317 15.5409 33.9317 15.5409L12.4173 24.281C12.4173 24.281 11.3986 24.6413 11.4796 25.3076C11.5595 25.9728 12.39 26.2787 12.39 26.2787L17.6674 28.1175L31.3467 19.1216C32.0741 18.6644 32.4631 19.0247 31.8365 19.6301C31.4318 20.0209 22.1711 28.6434 20.9768 29.7538L21.0178 29.7745L29.8591 36.7945C31.3319 37.4596 31.8681 36.0726 31.8681 36.0726Z" fill="white"/>
</svg>
